<svg width="48" height="48" viewBox="0 0 48 48" fill="none" xmlns="http://www.w3.org/2000/svg">
<path d="M47.0901 9.82722C46.9267 9.63171 46.7224 9.47445 46.4916 9.36655C46.2607 9.25865 46.009 9.20275 45.7542 9.2028H10.6561L9.59219 3.35887C9.44646 2.55676 9.02385 1.83125 8.39803 1.3088C7.77222 0.786351 6.98289 0.500118 6.16766 0.5H2.24055C1.77893 0.5 1.33621 0.68338 1.00979 1.0098C0.683379 1.33622 0.5 1.77893 0.5 2.24056C0.5 2.70218 0.683379 3.1449 1.00979 3.47132C1.33621 3.79774 1.77893 3.98112 2.24055 3.98112H6.15678L11.7178 34.504C11.8816 35.4092 12.2817 36.2551 12.8775 36.956C12.0552 37.7241 11.4616 38.7049 11.1627 39.7897C10.8638 40.8744 10.8712 42.0208 11.184 43.1017C11.4968 44.1825 12.1029 45.1556 12.935 45.9131C13.7671 46.6705 14.7927 47.1827 15.8981 47.3928C17.0035 47.603 18.1455 47.5028 19.1975 47.1035C20.2495 46.7042 21.1703 46.0214 21.8579 45.1307C22.5455 44.24 22.973 43.1763 23.0929 42.0575C23.2129 40.9387 23.0206 39.8085 22.5375 38.7923H32.4195C32.0301 39.6075 31.8286 40.4997 31.8299 41.4031C31.8299 42.608 32.1871 43.7858 32.8565 44.7877C33.5259 45.7895 34.4773 46.5703 35.5905 47.0314C36.7036 47.4925 37.9285 47.6131 39.1102 47.378C40.292 47.143 41.3774 46.5628 42.2294 45.7108C43.0814 44.8588 43.6616 43.7733 43.8966 42.5916C44.1317 41.4099 44.011 40.185 43.55 39.0719C43.0889 37.9587 42.3081 37.0073 41.3063 36.3379C40.3044 35.6685 39.1266 35.3112 37.9218 35.3112H16.8546C16.447 35.3111 16.0523 35.168 15.7394 34.9068C15.4265 34.6456 15.2152 34.2828 15.1424 33.8818L14.4527 30.0895H39.6906C40.9134 30.0893 42.0974 29.66 43.0362 28.8763C43.9749 28.0926 44.6088 27.0044 44.8274 25.8012L47.473 11.2545C47.5178 11.0031 47.5067 10.7449 47.4405 10.4982C47.3744 10.2515 47.2547 10.0225 47.0901 9.82722ZM19.646 41.4031C19.646 41.9195 19.4929 42.4243 19.206 42.8536C18.9191 43.283 18.5114 43.6176 18.0343 43.8152C17.5573 44.0129 17.0323 44.0646 16.5259 43.9638C16.0194 43.8631 15.5542 43.6144 15.1891 43.2493C14.8239 42.8842 14.5753 42.4189 14.4745 41.9125C14.3738 41.406 14.4255 40.8811 14.6231 40.404C14.8207 39.927 15.1554 39.5192 15.5847 39.2323C16.0141 38.9454 16.5188 38.7923 17.0352 38.7923C17.7276 38.7923 18.3917 39.0674 18.8813 39.557C19.371 40.0466 19.646 40.7107 19.646 41.4031ZM40.5326 41.4031C40.5326 41.9195 40.3795 42.4243 40.0926 42.8536C39.8057 43.283 39.3979 43.6176 38.9209 43.8152C38.4438 44.0129 37.9189 44.0646 37.4124 43.9638C36.906 43.8631 36.4408 43.6144 36.0756 43.2493C35.7105 42.8842 35.4619 42.4189 35.3611 41.9125C35.2604 41.406 35.3121 40.8811 35.5097 40.404C35.7073 39.927 36.0419 39.5192 36.4713 39.2323C36.9006 38.9454 37.4054 38.7923 37.9218 38.7923C38.6142 38.7923 39.2783 39.0674 39.7679 39.557C40.2575 40.0466 40.5326 40.7107 40.5326 41.4031ZM41.4029 25.179C41.3298 25.5811 41.1175 25.9447 40.8033 26.2061C40.489 26.4674 40.0928 26.6099 39.6841 26.6084H13.8195L11.2892 12.6839H43.6678L41.4029 25.179Z" fill="white"/>
</svg>
