<svg width="50" height="50" viewBox="0 0 50 50" fill="none" xmlns="http://www.w3.org/2000/svg">
<path d="M42.1875 12.5H7.8125C5.22367 12.5 3.125 14.5987 3.125 17.1875V39.0625C3.125 41.6513 5.22367 43.75 7.8125 43.75H42.1875C44.7763 43.75 46.875 41.6513 46.875 39.0625V17.1875C46.875 14.5987 44.7763 12.5 42.1875 12.5Z" stroke="white" stroke-width="3.125" stroke-linejoin="round"/>
<path d="M14.0625 12.5V9.375C14.0625 8.5462 14.3917 7.75134 14.9778 7.16529C15.5638 6.57924 16.3587 6.25 17.1875 6.25H32.8125C33.6413 6.25 34.4362 6.57924 35.0222 7.16529C35.6083 7.75134 35.9375 8.5462 35.9375 9.375V12.5M46.875 23.4375H3.125M31.25 23.4375V25.7812C31.25 25.9885 31.1677 26.1872 31.0212 26.3337C30.8747 26.4802 30.676 26.5625 30.4688 26.5625H19.5312C19.324 26.5625 19.1253 26.4802 18.9788 26.3337C18.8323 26.1872 18.75 25.9885 18.75 25.7812V23.4375" stroke="white" stroke-width="3.125" stroke-linecap="round" stroke-linejoin="round"/>
</svg>
