<svg width="50" height="50" viewBox="0 0 50 50" fill="none" xmlns="http://www.w3.org/2000/svg">
<path d="M25 8.33337H10.4167C8.75908 8.33337 7.16937 8.99185 5.99727 10.164C4.82517 11.3361 4.16669 12.9258 4.16669 14.5834V31.25C4.16669 32.9076 4.82517 34.4974 5.99727 35.6695C7.16937 36.8416 8.75908 37.5 10.4167 37.5L8.33335 39.5834V41.6667H10.4167L14.5834 37.4375L18.75 37.5V27.0834H8.33335V12.5H27.0834V16.6667H31.25V14.5834C31.25 12.9258 30.5915 11.3361 29.4194 10.164C28.2473 8.99185 26.6576 8.33337 25 8.33337ZM10.4167 29.1667C10.9692 29.1667 11.4991 29.3862 11.8898 29.7769C12.2805 30.1676 12.5 30.6975 12.5 31.25C12.5 31.8026 12.2805 32.3325 11.8898 32.7232C11.4991 33.1139 10.9692 33.3334 10.4167 33.3334C9.86415 33.3334 9.33425 33.1139 8.94355 32.7232C8.55285 32.3325 8.33335 31.8026 8.33335 31.25C8.33335 30.6975 8.55285 30.1676 8.94355 29.7769C9.33425 29.3862 9.86415 29.1667 10.4167 29.1667ZM42.8542 20.125C42.5625 19.2917 41.7709 18.75 40.8334 18.75H25.8542C24.8959 18.75 24.125 19.2917 23.8125 20.125L20.8334 28.6875V40.1667C20.8334 40.9584 21.5 41.6667 22.2917 41.6667H23.5834C24.375 41.6667 25 40.875 25 40.0834V37.5H41.6667V40.0834C41.6667 40.875 42.3125 41.6667 43.1042 41.6667H44.375C45.1667 41.6667 45.8334 40.9584 45.8334 40.1667V28.6875L42.8542 20.125ZM25.8542 20.8334H40.8334L42.9792 27.0834H23.7084L25.8542 20.8334ZM25 33.3334C24.4475 33.3334 23.9176 33.1139 23.5269 32.7232C23.1362 32.3325 22.9167 31.8026 22.9167 31.25C22.9167 30.6975 23.1362 30.1676 23.5269 29.7769C23.9176 29.3862 24.4475 29.1667 25 29.1667C25.5526 29.1667 26.0825 29.3862 26.4732 29.7769C26.8639 30.1676 27.0834 30.6975 27.0834 31.25C27.0834 31.8026 26.8639 32.3325 26.4732 32.7232C26.0825 33.1139 25.5526 33.3334 25 33.3334ZM41.6667 33.3334C41.1142 33.3334 40.5842 33.1139 40.1935 32.7232C39.8028 32.3325 39.5834 31.8026 39.5834 31.25C39.5834 30.6975 39.8028 30.1676 40.1935 29.7769C40.5842 29.3862 41.1142 29.1667 41.6667 29.1667C42.2192 29.1667 42.7491 29.3862 43.1398 29.7769C43.5305 30.1676 43.75 30.6975 43.75 31.25C43.75 31.8026 43.5305 32.3325 43.1398 32.7232C42.7491 33.1139 42.2192 33.3334 41.6667 33.3334Z" fill="white"/>
</svg>
