<svg width="50" height="50" viewBox="0 0 50 50" fill="none" xmlns="http://www.w3.org/2000/svg">
<path d="M42.6436 17.9795C42.1465 18.4734 41.4742 18.7506 40.7735 18.7506C40.0727 18.7506 39.4004 18.4734 38.9033 17.9795L36.708 15.7832C36.214 15.2864 35.9366 14.6142 35.9366 13.9136C35.9366 13.2129 36.214 12.5407 36.708 12.0439L41.6778 7.07421C41.6873 7.06466 41.6944 7.05292 41.6984 7.04001C41.7024 7.0271 41.7032 7.01341 41.7007 7.00012C41.6982 6.98684 41.6925 6.97438 41.684 6.9638C41.6756 6.95323 41.6648 6.94487 41.6524 6.93945C38.4453 5.5664 34.2862 6.26464 31.6455 8.88671C29.1182 11.3955 28.9746 15.1631 29.9004 18.457C30.032 18.9249 30.0316 19.4201 29.8995 19.8878C29.7673 20.3555 29.5084 20.7776 29.1514 21.1074L12.2569 36.8066C11.8536 37.1677 11.5283 37.6072 11.3007 38.0983C11.0731 38.5894 10.948 39.1218 10.9332 39.6629C10.9184 40.2039 11.014 40.7423 11.2143 41.2452C11.4147 41.748 11.7155 42.2047 12.0983 42.5874C12.4811 42.97 12.938 43.2705 13.4409 43.4706C13.9439 43.6707 14.4823 43.7661 15.0234 43.7509C15.5645 43.7358 16.0968 43.6105 16.5877 43.3826C17.0787 43.1548 17.5181 42.8292 17.8789 42.4258L33.7139 25.502C34.0402 25.1508 34.4559 24.8953 34.9166 24.7628C35.3772 24.6303 35.8652 24.6259 36.3282 24.75C39.5957 25.623 43.3096 25.459 45.8076 22.998C48.4922 20.3535 49.0713 15.6797 47.7705 13.0049C47.7646 12.9931 47.756 12.983 47.7455 12.9752C47.7349 12.9674 47.7226 12.9623 47.7096 12.9602C47.6967 12.9581 47.6834 12.9591 47.6709 12.9631C47.6584 12.9672 47.647 12.9741 47.6377 12.9834L42.6436 17.9795Z" stroke="white" stroke-width="3.125" stroke-miterlimit="10" stroke-linecap="round"/>
<path d="M21.875 27.7344C20.168 26.0742 19.3858 25.3017 18.8477 24.7764C18.5784 24.5088 18.4016 24.1623 18.3431 23.7872C18.2846 23.4122 18.3475 23.0282 18.5225 22.6914C18.6148 22.5258 18.7298 22.3739 18.8643 22.2402L20.3955 20.7471C20.554 20.5883 20.7404 20.4602 20.9453 20.3691C21.2689 20.2259 21.628 20.183 21.9762 20.2461C22.3244 20.3091 22.6456 20.4751 22.8985 20.7226C23.4307 21.2392 24.4053 22.1875 26.1612 23.8984M30.9639 28.4472C34.9629 32.1679 39.8135 36.5791 41.7061 38.1553C41.8476 38.2719 41.9632 38.4169 42.0453 38.5809C42.1274 38.745 42.1743 38.9243 42.183 39.1076C42.1916 39.2908 42.1618 39.4738 42.0955 39.6448C42.0292 39.8158 41.9278 39.9711 41.7979 40.1006L38.5381 43.3594C38.4054 43.489 38.2478 43.5903 38.0747 43.657C37.9017 43.7238 37.7168 43.7546 37.5315 43.7477C37.3461 43.7408 37.1641 43.6962 36.9965 43.6166C36.8289 43.5371 36.6793 43.4243 36.5567 43.2851C34.9424 41.4121 30.5908 36.7314 26.8623 32.8359" stroke="white" stroke-width="3.125" stroke-linecap="round" stroke-linejoin="round"/>
<path d="M1.69333 18.8965L4.5654 16.0898C4.60927 16.0467 4.66135 16.0128 4.71855 15.9902C4.77575 15.9675 4.83691 15.9566 4.89841 15.958C5.02239 15.9567 5.14195 16.004 5.23142 16.0898C5.33542 16.1927 5.4615 16.2706 5.60009 16.3174C5.73867 16.3643 5.88612 16.379 6.03122 16.3604C6.40525 16.3193 6.80466 16.2041 7.06345 15.958C7.64939 15.3916 6.97165 14.2754 7.48728 13.5615C8.07687 12.78 8.72245 12.0424 9.41892 11.3545C10.0049 10.7803 12.333 8.58887 16.2451 7.01368C17.4962 6.50798 18.8332 6.24868 20.1826 6.25001C22.3886 6.25001 24.0888 7.22657 24.7002 7.78028C25.0671 8.1294 25.403 8.50973 25.7041 8.917C25.41 8.80863 25.1097 8.71829 24.8047 8.64649C24.1631 8.5104 23.5051 8.46894 22.8515 8.52344C21.5498 8.62989 19.9795 9.23243 19.1406 9.89063C17.7832 10.9648 17.2002 12.4023 17.1084 14.2568C17.042 15.6357 17.374 16.415 20.6338 19.6758C20.7452 19.8002 20.804 19.9629 20.7978 20.1298C20.7916 20.2966 20.7209 20.4546 20.6006 20.5703L18.8213 22.3281C18.6972 22.4497 18.5309 22.5186 18.3572 22.5202C18.1835 22.5219 18.0159 22.4562 17.8896 22.3369C15.747 20.1943 14.3105 19.1055 13.4951 18.6104C12.6797 18.1152 12.0234 17.9756 11.708 17.9414C11.0885 17.88 10.4652 18.0121 9.9238 18.3193C9.82881 18.3715 9.74195 18.4373 9.66599 18.5147C9.53919 18.6457 9.43961 18.8006 9.37299 18.9703C9.30638 19.1401 9.27404 19.3214 9.27785 19.5037C9.28167 19.686 9.32155 19.8657 9.39521 20.0326C9.46887 20.1994 9.57484 20.3499 9.707 20.4756L9.874 20.6318C9.91735 20.674 9.95181 20.7244 9.97534 20.7801C9.99887 20.8358 10.011 20.8956 10.011 20.9561C10.011 21.0165 9.99887 21.0764 9.97534 21.132C9.95181 21.1877 9.91735 21.2381 9.874 21.2803L7.00485 24.082C6.96139 24.126 6.9095 24.1608 6.85228 24.1843C6.79506 24.2078 6.73369 24.2195 6.67185 24.2188C6.54789 24.22 6.42836 24.1727 6.33884 24.0869L1.69333 19.5527C1.60925 19.4642 1.56238 19.3467 1.56238 19.2246C1.56238 19.1025 1.60925 18.985 1.69333 18.8965Z" stroke="white" stroke-width="3.125" stroke-linecap="round" stroke-linejoin="round"/>
</svg>
