<svg width="50" height="50" viewBox="0 0 50 50" fill="none" xmlns="http://www.w3.org/2000/svg">
<path d="M39.5834 16.6667H10.4167C9.27085 16.6667 8.33335 15.7292 8.33335 14.5834C8.33335 13.4375 9.27085 12.5 10.4167 12.5H39.5834C40.7292 12.5 41.6667 13.4375 41.6667 14.5834C41.6667 15.7292 40.7292 16.6667 39.5834 16.6667ZM35.4167 4.16669H14.5834C13.4375 4.16669 12.5 5.10419 12.5 6.25002C12.5 7.39585 13.4375 8.33335 14.5834 8.33335H35.4167C36.5625 8.33335 37.5 7.39585 37.5 6.25002C37.5 5.10419 36.5625 4.16669 35.4167 4.16669ZM45.8334 25V41.6667C45.8334 43.9584 43.9584 45.8334 41.6667 45.8334H8.33335C6.04169 45.8334 4.16669 43.9584 4.16669 41.6667V25C4.16669 22.7084 6.04169 20.8334 8.33335 20.8334H41.6667C43.9584 20.8334 45.8334 22.7084 45.8334 25ZM31.6459 32.4167L20.8334 26.5209V40.125L31.6459 34.25C31.8112 34.1608 31.9494 34.0284 32.0456 33.8671C32.1419 33.7057 32.1928 33.5213 32.1928 33.3334C32.1928 33.1454 32.1419 32.961 32.0456 32.7996C31.9494 32.6383 31.8112 32.5059 31.6459 32.4167Z" fill="white"/>
</svg>
