<svg width="52" height="52" viewBox="0 0 52 52" fill="none" xmlns="http://www.w3.org/2000/svg">
<path d="M37.1429 5.57153H14.8571C12.8058 5.57153 11.1429 7.23448 11.1429 9.28582V27.8572C11.1429 29.9086 12.8058 31.5715 14.8571 31.5715H37.1429C39.1942 31.5715 40.8571 29.9086 40.8571 27.8572V9.28582C40.8571 7.23448 39.1942 5.57153 37.1429 5.57153Z" stroke="white" stroke-width="3" stroke-linecap="round" stroke-linejoin="round"/>
<path d="M11.1429 16.7144H5.57143C4.58634 16.7144 3.6416 17.1057 2.94504 17.8022C2.24847 18.4988 1.85715 19.4436 1.85715 20.4286V37.1429C1.85715 38.128 2.24847 39.0728 2.94504 39.7693C3.6416 40.4659 4.58634 40.8572 5.57143 40.8572H46.4286C47.4137 40.8572 48.3584 40.4659 49.055 39.7693C49.7515 39.0728 50.1429 38.128 50.1429 37.1429V20.4286C50.1429 19.4436 49.7515 18.4988 49.055 17.8022C48.3584 17.1057 47.4137 16.7144 46.4286 16.7144H40.8571M14.8571 40.8572L13 50.1429M37.1429 40.8572L39 50.1429" stroke="white" stroke-width="3" stroke-linecap="round" stroke-linejoin="round"/>
</svg>
