<svg width="50" height="50" viewBox="0 0 50 50" fill="none" xmlns="http://www.w3.org/2000/svg">
<path d="M5.97917 10.4167H27.3542C29.0208 10.4167 30.0208 12.2709 29.0833 13.6459L18.75 29.1667V37.5H20.8333C21.9792 37.5 22.9167 38.4375 22.9167 39.5834C22.9167 40.7292 21.9792 41.6667 20.8333 41.6667H12.5C11.3542 41.6667 10.4167 40.7292 10.4167 39.5834C10.4167 38.4375 11.3542 37.5 12.5 37.5H14.5833V29.1667L4.25 13.6459C3.3125 12.2709 4.3125 10.4167 5.97917 10.4167ZM21.0417 18.75L23.9583 14.5834H9.35417L12.2708 18.75H21.0417ZM39.5833 10.4167H42.7083C44.4375 10.4167 45.8333 11.8125 45.8333 13.5417C45.8333 15.2709 44.4375 16.6667 42.7083 16.6667H39.5833V35.4167C39.5833 39.25 36.1667 42.25 32.2083 41.5625C29.6875 41.125 27.625 39.0625 27.1875 36.5417C27.0207 35.6405 27.0545 34.7137 27.2865 33.8271C27.5184 32.9405 27.9428 32.1158 28.5295 31.4118C29.1162 30.7077 29.8508 30.1416 30.6811 29.7536C31.5113 29.3655 32.4169 29.1652 33.3333 29.1667C34.0428 29.1656 34.7474 29.2854 35.4167 29.5209V14.5834C35.4167 12.2917 37.2917 10.4167 39.5833 10.4167Z" fill="white"/>
</svg>
