<svg width="54" height="54" viewBox="0 0 54 54" fill="none" xmlns="http://www.w3.org/2000/svg">
<path d="M13.5 5.0625C13.5 4.61495 13.3222 4.18572 13.0057 3.86926C12.6893 3.55279 12.2601 3.375 11.8125 3.375C11.3649 3.375 10.9357 3.55279 10.6193 3.86926C10.3028 4.18572 10.125 4.61495 10.125 5.0625V15.1875C10.1246 17.1326 10.7963 19.0181 12.0263 20.5249C13.2563 22.0317 14.9692 23.0672 16.875 23.4562V48.9375C16.875 49.3851 17.0528 49.8143 17.3693 50.1307C17.6857 50.4472 18.1149 50.625 18.5625 50.625C19.0101 50.625 19.4393 50.4472 19.7557 50.1307C20.0722 49.8143 20.25 49.3851 20.25 48.9375V23.4562C22.1558 23.0672 23.8687 22.0317 25.0987 20.5249C26.3287 19.0181 27.0004 17.1326 27 15.1875V5.0625C27 4.61495 26.8222 4.18572 26.5057 3.86926C26.1893 3.55279 25.7601 3.375 25.3125 3.375C24.8649 3.375 24.4357 3.55279 24.1193 3.86926C23.8028 4.18572 23.625 4.61495 23.625 5.0625V15.1875C23.6255 16.2349 23.3012 17.2566 22.6968 18.1119C22.0923 18.9672 21.2375 19.614 20.25 19.9631V5.0625C20.25 4.61495 20.0722 4.18572 19.7557 3.86926C19.4393 3.55279 19.0101 3.375 18.5625 3.375C18.1149 3.375 17.6857 3.55279 17.3693 3.86926C17.0528 4.18572 16.875 4.61495 16.875 5.0625V19.9631C15.8875 19.614 15.0327 18.9672 14.4282 18.1119C13.8238 17.2566 13.4995 16.2349 13.5 15.1875V5.0625ZM37.125 48.9375V27H32.0625C31.6149 27 31.1857 26.8222 30.8693 26.5057C30.5528 26.1893 30.375 25.7601 30.375 25.3125V11.8125C30.375 9.57488 31.4752 7.48238 32.9771 5.97713C34.4824 4.47525 36.5749 3.375 38.8125 3.375C39.2601 3.375 39.6893 3.55279 40.0057 3.86926C40.3222 4.18572 40.5 4.61495 40.5 5.0625V48.9375C40.5 49.3851 40.3222 49.8143 40.0057 50.1307C39.6893 50.4472 39.2601 50.625 38.8125 50.625C38.3649 50.625 37.9357 50.4472 37.6193 50.1307C37.3028 49.8143 37.125 49.3851 37.125 48.9375Z" fill="white"/>
</svg>
