<svg width="50" height="50" viewBox="0 0 50 50" fill="none" xmlns="http://www.w3.org/2000/svg">
<path d="M35.9375 16.2719L40.625 11.5844L38.4157 9.375L33.2703 14.5203C32.9773 14.8133 32.8126 15.2106 32.8125 15.625V21.875H21.7594L23.5453 46.875H37.3922L39.1781 21.875H35.9375V16.2719ZM34.4844 43.75H26.4532L25.1156 25H35.8219L34.4844 43.75Z" fill="white"/>
<path d="M23.4375 1.5625H15.625C15.2106 1.5625 14.8132 1.72712 14.5201 2.02015C14.2271 2.31317 14.0625 2.7106 14.0625 3.125V14.6406C12.3953 15.5875 9.375 18.0438 9.375 23.4375V45.3125C9.375 45.7269 9.53962 46.1243 9.83265 46.4174C10.1257 46.7104 10.5231 46.875 10.9375 46.875H18.75V43.75H12.5V23.4375C12.5 17.5719 17.1875 16.75 17.1875 16.75V4.6875H21.875V15.625H25V3.125C25 2.7106 24.8354 2.31317 24.5424 2.02015C24.2493 1.72712 23.8519 1.5625 23.4375 1.5625Z" fill="white"/>
</svg>
