<svg width="50" height="50" viewBox="0 0 50 50" fill="none" xmlns="http://www.w3.org/2000/svg">
<path d="M14.0625 20.3125C14.0625 19.8981 14.2271 19.5007 14.5201 19.2076C14.8132 18.9146 15.2106 18.75 15.625 18.75H34.375C34.7894 18.75 35.1868 18.9146 35.4799 19.2076C35.7729 19.5007 35.9375 19.8981 35.9375 20.3125C35.9375 20.7269 35.7729 21.1243 35.4799 21.4174C35.1868 21.7104 34.7894 21.875 34.375 21.875H15.625C15.2106 21.875 14.8132 21.7104 14.5201 21.4174C14.2271 21.1243 14.0625 20.7269 14.0625 20.3125ZM15.625 28.125H34.375C34.7894 28.125 35.1868 27.9604 35.4799 27.6674C35.7729 27.3743 35.9375 26.9769 35.9375 26.5625C35.9375 26.1481 35.7729 25.7507 35.4799 25.4576C35.1868 25.1646 34.7894 25 34.375 25H15.625C15.2106 25 14.8132 25.1646 14.5201 25.4576C14.2271 25.7507 14.0625 26.1481 14.0625 26.5625C14.0625 26.9769 14.2271 27.3743 14.5201 27.6674C14.8132 27.9604 15.2106 28.125 15.625 28.125ZM45.3125 10.9375V40.625C45.3124 40.8913 45.2442 41.1532 45.1144 41.3857C44.9846 41.6182 44.7975 41.8137 44.5709 41.9537C44.3443 42.0936 44.0857 42.1732 43.8196 42.1851C43.5536 42.197 43.2889 42.1407 43.0508 42.0215L37.5 39.2461L31.9492 42.0215C31.7321 42.1301 31.4927 42.1867 31.25 42.1867C31.0073 42.1867 30.7679 42.1301 30.5508 42.0215L25 39.2461L19.4492 42.0215C19.2321 42.1301 18.9927 42.1867 18.75 42.1867C18.5073 42.1867 18.2679 42.1301 18.0508 42.0215L12.5 39.2461L6.94922 42.0215C6.71106 42.1407 6.4464 42.197 6.18035 42.1851C5.91431 42.1732 5.65571 42.0936 5.42911 41.9537C5.20252 41.8137 5.01544 41.6182 4.88564 41.3857C4.75585 41.1532 4.68764 40.8913 4.6875 40.625V10.9375C4.6875 10.1087 5.01674 9.31384 5.60279 8.72779C6.18884 8.14174 6.9837 7.8125 7.8125 7.8125H42.1875C43.0163 7.8125 43.8112 8.14174 44.3972 8.72779C44.9833 9.31384 45.3125 10.1087 45.3125 10.9375ZM42.1875 10.9375H7.8125V38.0977L11.8008 36.1016C12.0179 35.9929 12.2573 35.9364 12.5 35.9364C12.7427 35.9364 12.9821 35.9929 13.1992 36.1016L18.75 38.8789L24.3008 36.1016C24.5179 35.9929 24.7573 35.9364 25 35.9364C25.2427 35.9364 25.4821 35.9929 25.6992 36.1016L31.25 38.8789L36.8008 36.1016C37.0179 35.9929 37.2573 35.9364 37.5 35.9364C37.7427 35.9364 37.9821 35.9929 38.1992 36.1016L42.1875 38.0977V10.9375Z" fill="white"/>
</svg>
