<svg width="50" height="50" viewBox="0 0 50 50" fill="none" xmlns="http://www.w3.org/2000/svg">
<path d="M25 10.1563V15.625M25 10.1563C25 9.07464 25.3207 8.01731 25.9217 7.11798C26.5226 6.21865 27.3767 5.5177 28.376 5.10379C29.3752 4.68987 30.4748 4.58157 31.5357 4.79258C32.5965 5.0036 33.5709 5.52444 34.3357 6.28926C35.1006 7.05408 35.6214 8.02852 35.8324 9.08935C36.0434 10.1502 35.9351 11.2498 35.5212 12.2491C35.1073 13.2483 34.4064 14.1024 33.507 14.7034C32.6077 15.3043 31.5504 15.625 30.4688 15.625H25M25 10.1563C25 9.07464 24.6793 8.01731 24.0784 7.11798C23.4774 6.21865 22.6233 5.5177 21.6241 5.10379C20.6248 4.68987 19.5252 4.58157 18.4644 4.79258C17.4035 5.0036 16.4291 5.52444 15.6643 6.28926C14.8994 7.05408 14.3786 8.02852 14.1676 9.08935C13.9566 10.1502 14.0649 11.2498 14.4788 12.2491C14.8927 13.2483 15.5936 14.1024 16.493 14.7034C17.3923 15.3043 18.4496 15.625 19.5313 15.625H25" stroke="white" stroke-width="3.125" stroke-miterlimit="10" stroke-linecap="round"/>
<path d="M40.625 15.625H9.375C7.64911 15.625 6.25 17.0241 6.25 18.75V23.4375C6.25 25.1634 7.64911 26.5625 9.375 26.5625H40.625C42.3509 26.5625 43.75 25.1634 43.75 23.4375V18.75C43.75 17.0241 42.3509 15.625 40.625 15.625Z" stroke="white" stroke-width="3.125" stroke-linecap="round" stroke-linejoin="round"/>
<path d="M40.625 26.5625V40.625C40.625 41.8682 40.1311 43.0605 39.2521 43.9396C38.373 44.8186 37.1807 45.3125 35.9375 45.3125H14.0625C12.8193 45.3125 11.627 44.8186 10.7479 43.9396C9.86886 43.0605 9.375 41.8682 9.375 40.625V26.5625M25 15.625V45.3125" stroke="white" stroke-width="3.125" stroke-linecap="round" stroke-linejoin="round"/>
</svg>
