<svg width="50" height="50" viewBox="0 0 50 50" fill="none" xmlns="http://www.w3.org/2000/svg">
<path d="M18.75 21.289V20.7031C18.75 19.2539 19.7266 18.0664 21.1172 17.7158L38.167 13.1572C38.4559 13.0799 38.7588 13.07 39.0522 13.1282C39.3456 13.1864 39.6217 13.3113 39.8592 13.4931C40.0967 13.675 40.2892 13.9089 40.422 14.1769C40.5548 14.445 40.6242 14.7399 40.625 15.039V17.1875" stroke="white" stroke-width="3.125" stroke-linecap="round" stroke-linejoin="round"/>
<path d="M40.625 28.9004V36.7129C40.625 38.0713 39.7529 39.2119 38.4766 39.6426L36.3281 40.4238C33.7988 41.2754 31.25 39.4063 31.25 36.7129C31.2442 36.021 31.4587 35.3453 31.8625 34.7834C32.2663 34.2216 32.8384 33.8029 33.4961 33.5879L38.4766 31.8154C39.7529 31.3858 40.625 30.2588 40.625 28.9004ZM40.625 28.9004V5.66408C40.6243 5.51457 40.5893 5.36721 40.5227 5.23336C40.456 5.09952 40.3596 4.98276 40.2407 4.89209C40.1218 4.80142 39.9837 4.73925 39.837 4.71039C39.6903 4.68152 39.5389 4.68673 39.3945 4.7256L19.9219 9.96096C19.5822 10.0569 19.2836 10.2618 19.0718 10.5441C18.8601 10.8264 18.747 11.1706 18.75 11.5235V33.5938M18.75 33.5938C18.75 34.9522 17.8779 36.0938 16.6016 36.5235L11.5234 38.2813C10.168 38.7383 9.375 39.9629 9.375 41.4063C9.375 44.0996 11.9648 45.9522 14.4531 45.1172L16.6016 44.336C17.8779 43.9063 18.75 42.7656 18.75 41.4063V33.5938Z" stroke="white" stroke-width="3.125" stroke-linecap="round" stroke-linejoin="round"/>
</svg>
