<svg width="50" height="50" viewBox="0 0 50 50" fill="none" xmlns="http://www.w3.org/2000/svg">
<path d="M39.8164 21.875C39.4844 21.875 38.3721 21.8848 38.0586 21.9043L31.7207 22.0703C31.6878 22.0723 31.6549 22.0652 31.6258 22.0497C31.5966 22.0342 31.5724 22.0109 31.5557 21.9824L18.9014 6.59766C18.8246 6.49605 18.7267 6.41234 18.6144 6.35231C18.5021 6.29228 18.3781 6.25738 18.251 6.25H15.625L22.7539 21.9727C22.7709 22.0086 22.7783 22.0484 22.7752 22.0881C22.7722 22.1278 22.7589 22.166 22.7367 22.199C22.7144 22.232 22.6839 22.2587 22.6483 22.2763C22.6126 22.294 22.5729 22.3021 22.5332 22.2998L10.6494 22.4756C10.5258 22.4793 10.4029 22.4539 10.291 22.4013C10.179 22.3487 10.081 22.2704 10.0049 22.1729L6.39161 17.7783C6.09864 17.3975 5.54981 17.1924 5.07227 17.1924H3.23048C3.1045 17.1924 3.12305 17.3105 3.15723 17.4297L5.09473 24.4043C5.24119 24.7778 5.24119 25.1929 5.09473 25.5664L3.15528 32.5195C3.09766 32.71 3.1045 32.8125 3.32813 32.8125H5.07813C5.87305 32.8125 5.98145 32.709 6.3877 32.1973L10.0693 27.7344C10.1461 27.6376 10.2442 27.5598 10.3561 27.5073C10.4679 27.4548 10.5904 27.4289 10.7139 27.4316L22.499 27.6953C22.5419 27.6963 22.584 27.7077 22.6214 27.7286C22.6589 27.7495 22.6908 27.7793 22.7141 27.8153C22.7375 27.8512 22.7518 27.8924 22.7556 27.9352C22.7595 27.9779 22.7529 28.0209 22.7363 28.0605L15.625 43.75H18.2266C18.3534 43.7426 18.4772 43.7078 18.5893 43.6479C18.7014 43.5881 18.7992 43.5046 18.876 43.4033L31.5566 28.0273C31.5947 27.9687 31.752 27.9395 31.8193 27.9395L38.0596 28.1055C38.3818 28.125 39.4844 28.1348 39.8174 28.1348C44.1406 28.1348 46.875 26.9463 46.875 25C46.875 23.0537 44.1524 21.875 39.8164 21.875Z" stroke="white" stroke-width="3.125" stroke-linecap="round" stroke-linejoin="round"/>
</svg>
