<svg width="50" height="50" viewBox="0 0 50 50" fill="none" xmlns="http://www.w3.org/2000/svg">
<path d="M33.3334 47.9167C32.7431 47.9167 32.2479 47.7167 31.8479 47.3167C31.4479 46.9167 31.2486 46.4222 31.25 45.8334C31.25 45.2431 31.45 44.7479 31.85 44.3479C32.25 43.9479 32.7445 43.7486 33.3334 43.75H39.5834V41.6667H33.3334C32.7431 41.6667 32.2479 41.4667 31.8479 41.0667C31.4479 40.6667 31.2486 40.1722 31.25 39.5834C31.25 38.9931 31.45 38.4979 31.85 38.0979C32.25 37.6979 32.7445 37.4986 33.3334 37.5H39.5834V35.4167H33.3334C32.7431 35.4167 32.2479 35.2167 31.8479 34.8167C31.4479 34.4167 31.2486 33.9222 31.25 33.3334C31.25 32.7431 31.45 32.2479 31.85 31.8479C32.25 31.4479 32.7445 31.2486 33.3334 31.25H39.5834V29.1667H33.3334C32.7431 29.1667 32.2479 28.9667 31.8479 28.5667C31.4479 28.1667 31.2486 27.6722 31.25 27.0834C31.25 26.4931 31.45 25.9979 31.85 25.5979C32.25 25.1979 32.7445 24.9986 33.3334 25H39.5834V22.9167H33.3334C32.7431 22.9167 32.2479 22.7167 31.8479 22.3167C31.4479 21.9167 31.2486 21.4222 31.25 20.8334C31.25 20.2431 31.45 19.7479 31.85 19.3479C32.25 18.9479 32.7445 18.7486 33.3334 18.75H39.5834V16.6667H33.3334C32.7431 16.6667 32.2479 16.4667 31.8479 16.0667C31.4479 15.6667 31.2486 15.1722 31.25 14.5834C31.25 13.9931 31.45 13.4979 31.85 13.0979C32.25 12.6979 32.7445 12.4986 33.3334 12.5H41.6667C42.8125 12.5 43.7938 12.9084 44.6104 13.725C45.4271 14.5417 45.8347 15.5222 45.8334 16.6667V43.75C45.8334 44.8959 45.425 45.8771 44.6084 46.6938C43.7917 47.5104 42.8111 47.9181 41.6667 47.9167H33.3334ZM16.6667 31.25C18.9584 31.25 20.9202 30.1215 22.5521 27.8646C24.184 25.6077 25 22.9167 25 19.7917C25 16.6667 24.184 13.9757 22.5521 11.7188C20.9202 9.46183 18.9584 8.33335 16.6667 8.33335C14.375 8.33335 12.4132 9.46183 10.7813 11.7188C9.14933 13.9757 8.33335 16.6667 8.33335 19.7917C8.33335 22.9167 9.14933 25.6077 10.7813 27.8646C12.4132 30.1215 14.375 31.25 16.6667 31.25ZM16.6667 47.9167C15 47.9167 13.6285 47.3 12.5521 46.0667C11.4757 44.8334 11.059 43.384 11.3021 41.7188L12.1354 34.375C9.77433 33.2292 7.85627 31.3452 6.38127 28.7229C4.90627 26.1007 4.16808 23.1236 4.16669 19.7917C4.16669 15.4514 5.38196 11.7618 7.81252 8.72294C10.2431 5.68405 13.1945 4.1653 16.6667 4.16669C20.1389 4.16669 23.0903 5.68613 25.5209 8.72502C27.9514 11.7639 29.1667 15.4528 29.1667 19.7917C29.1667 23.125 28.4285 26.1028 26.9521 28.725C25.4757 31.3472 23.5577 33.2306 21.1979 34.375L22.0313 41.7188C22.2743 43.3854 21.8577 44.8347 20.7813 46.0667C19.7049 47.2986 18.3334 47.9153 16.6667 47.9167Z" fill="white"/>
</svg>
