<svg width="50" height="50" viewBox="0 0 50 50" fill="none" xmlns="http://www.w3.org/2000/svg">
<path d="M10.1625 6.25C9.9553 6.25 9.75659 6.33231 9.61007 6.47882C9.46356 6.62534 9.38125 6.82405 9.38125 7.03125L9.375 33.5938C9.375 34.025 9.725 34.375 10.1562 34.375H15.625V37.5H10.1562C8 37.5 6.25 35.75 6.25 33.5938L6.25625 7.03125C6.25625 4.875 8.00625 3.125 10.1625 3.125H24.2344C26.3906 3.125 28.1406 4.875 28.1406 7.03437L28.1344 13.2812C28.1344 13.7125 28.4813 14.0625 28.9156 14.0625H30.4688C31.4777 14.0617 32.4479 14.4513 33.176 15.1497C33.9042 15.8481 34.3338 16.8012 34.375 17.8094C32.9376 16.9813 31.2303 16.7576 29.6281 17.1875H28.9156C28.4024 17.1875 27.8942 17.0864 27.42 16.8899C26.9459 16.6934 26.5152 16.4053 26.1524 16.0423C25.7896 15.6792 25.5019 15.2482 25.3058 14.7739C25.1097 14.2997 25.009 13.7914 25.0094 13.2781L25.0156 7.03125C25.0156 6.82405 24.9333 6.62534 24.7868 6.47882C24.6403 6.33231 24.4416 6.25 24.2344 6.25H10.1625ZM33.3781 20.9375C32.8001 20.4007 32.0404 20.1023 31.2516 20.1023C30.4627 20.1023 29.703 20.4007 29.125 20.9375L20.25 29.1781C19.7768 29.617 19.3993 30.1488 19.1412 30.7403C18.8831 31.3318 18.7499 31.9703 18.75 32.6156V43.75C18.75 44.5788 19.0792 45.3737 19.6653 45.9597C20.2513 46.5458 21.0462 46.875 21.875 46.875H26.5625C27.3913 46.875 28.1862 46.5458 28.7722 45.9597C29.3583 45.3737 29.6875 44.5788 29.6875 43.75V40.625H32.8125V43.75C32.8125 44.5788 33.1417 45.3737 33.7278 45.9597C34.3138 46.5458 35.1087 46.875 35.9375 46.875H40.625C41.4538 46.875 42.2487 46.5458 42.8347 45.9597C43.4208 45.3737 43.75 44.5788 43.75 43.75V32.6125C43.7501 31.9671 43.6169 31.3287 43.3588 30.7372C43.1007 30.1457 42.7232 29.6139 42.25 29.175L33.3781 20.9375ZM22.375 31.4687L31.25 23.225L40.125 31.4687C40.2825 31.6148 40.4081 31.7917 40.4942 31.9885C40.5802 32.1853 40.6247 32.3977 40.625 32.6125V43.75H35.9375V40.625C35.9375 39.7962 35.6083 39.0013 35.0222 38.4153C34.4362 37.8292 33.6413 37.5 32.8125 37.5H29.6875C28.8587 37.5 28.0638 37.8292 27.4778 38.4153C26.8917 39.0013 26.5625 39.7962 26.5625 40.625V43.75H21.875V32.6125C21.8753 32.3977 21.9198 32.1853 22.0058 31.9885C22.0919 31.7917 22.2175 31.6148 22.375 31.4687ZM15.625 10.9375C15.625 11.3519 15.4604 11.7493 15.1674 12.0424C14.8743 12.3354 14.4769 12.5 14.0625 12.5C13.6481 12.5 13.2507 12.3354 12.9576 12.0424C12.6646 11.7493 12.5 11.3519 12.5 10.9375C12.5 10.5231 12.6646 10.1257 12.9576 9.83265C13.2507 9.53962 13.6481 9.375 14.0625 9.375C14.4769 9.375 14.8743 9.53962 15.1674 9.83265C15.4604 10.1257 15.625 10.5231 15.625 10.9375ZM14.0625 18.75C14.4769 18.75 14.8743 18.5854 15.1674 18.2924C15.4604 17.9993 15.625 17.6019 15.625 17.1875C15.625 16.7731 15.4604 16.3757 15.1674 16.0826C14.8743 15.7896 14.4769 15.625 14.0625 15.625C13.6481 15.625 13.2507 15.7896 12.9576 16.0826C12.6646 16.3757 12.5 16.7731 12.5 17.1875C12.5 17.6019 12.6646 17.9993 12.9576 18.2924C13.2507 18.5854 13.6481 18.75 14.0625 18.75ZM15.625 23.4375C15.625 23.8519 15.4604 24.2493 15.1674 24.5424C14.8743 24.8354 14.4769 25 14.0625 25C13.6481 25 13.2507 24.8354 12.9576 24.5424C12.6646 24.2493 12.5 23.8519 12.5 23.4375C12.5 23.0231 12.6646 22.6257 12.9576 22.3326C13.2507 22.0396 13.6481 21.875 14.0625 21.875C14.4769 21.875 14.8743 22.0396 15.1674 22.3326C15.4604 22.6257 15.625 23.0231 15.625 23.4375ZM20.3125 12.5C20.7269 12.5 21.1243 12.3354 21.4174 12.0424C21.7104 11.7493 21.875 11.3519 21.875 10.9375C21.875 10.5231 21.7104 10.1257 21.4174 9.83265C21.1243 9.53962 20.7269 9.375 20.3125 9.375C19.8981 9.375 19.5007 9.53962 19.2076 9.83265C18.9146 10.1257 18.75 10.5231 18.75 10.9375C18.75 11.3519 18.9146 11.7493 19.2076 12.0424C19.5007 12.3354 19.8981 12.5 20.3125 12.5ZM21.875 17.1875C21.875 17.6019 21.7104 17.9993 21.4174 18.2924C21.1243 18.5854 20.7269 18.75 20.3125 18.75C19.8981 18.75 19.5007 18.5854 19.2076 18.2924C18.9146 17.9993 18.75 17.6019 18.75 17.1875C18.75 16.7731 18.9146 16.3757 19.2076 16.0826C19.5007 15.7896 19.8981 15.625 20.3125 15.625C20.7269 15.625 21.1243 15.7896 21.4174 16.0826C21.7104 16.3757 21.875 16.7731 21.875 17.1875ZM20.3125 25C20.7269 25 21.1243 24.8354 21.4174 24.5424C21.7104 24.2493 21.875 23.8519 21.875 23.4375C21.875 23.0231 21.7104 22.6257 21.4174 22.3326C21.1243 22.0396 20.7269 21.875 20.3125 21.875C19.8981 21.875 19.5007 22.0396 19.2076 22.3326C18.9146 22.6257 18.75 23.0231 18.75 23.4375C18.75 23.8519 18.9146 24.2493 19.2076 24.5424C19.5007 24.8354 19.8981 25 20.3125 25Z" fill="white"/>
</svg>
