<svg width="50" height="50" viewBox="0 0 50 50" fill="none" xmlns="http://www.w3.org/2000/svg">
<path d="M46.418 12.957C46.2729 12.8118 46.1005 12.6965 45.9109 12.6179C45.7212 12.5393 45.5178 12.4988 45.3125 12.4988C45.1072 12.4988 44.9038 12.5393 44.7142 12.6179C44.5245 12.6965 44.3522 12.8118 44.207 12.957L37.5 19.666L30.334 12.5L37.043 5.79298C37.3362 5.49979 37.5009 5.10215 37.5009 4.68751C37.5009 4.27288 37.3362 3.87523 37.043 3.58205C36.7498 3.28886 36.3521 3.12415 35.9375 3.12415C35.5229 3.12415 35.1252 3.28886 34.832 3.58205L28.125 10.291L22.9805 5.14455C22.6873 4.85136 22.2896 4.68665 21.875 4.68665C21.4604 4.68665 21.0627 4.85136 20.7695 5.14455C20.4764 5.43773 20.3116 5.83538 20.3116 6.25001C20.3116 6.66465 20.4764 7.06229 20.7695 7.35548L22.0098 8.59376L11.6582 18.9453C10.9327 19.6708 10.3572 20.5321 9.96458 21.4799C9.57194 22.4278 9.36985 23.4438 9.36985 24.4697C9.36985 25.4957 9.57194 26.5117 9.96458 27.4595C10.3572 28.4074 10.9327 29.2687 11.6582 29.9942L14.7266 33.0625L5.14455 42.6445C4.99937 42.7897 4.88422 42.9621 4.80565 43.1517C4.72708 43.3414 4.68665 43.5447 4.68665 43.75C4.68665 43.9553 4.72708 44.1586 4.80565 44.3483C4.88422 44.538 4.99937 44.7103 5.14455 44.8555C5.43773 45.1487 5.83538 45.3134 6.25001 45.3134C6.45532 45.3134 6.65861 45.2729 6.84829 45.1944C7.03797 45.1158 7.21031 45.0007 7.35548 44.8555L16.9434 35.2676L20.0117 38.336C20.7372 39.0615 21.5985 39.637 22.5463 40.0296C23.4942 40.4222 24.5102 40.6243 25.5361 40.6243C26.5621 40.6243 27.5781 40.4222 28.526 40.0296C29.4738 39.637 30.3351 39.0615 31.0606 38.336L41.4121 27.9844L42.6504 29.2246C42.7956 29.3698 42.9679 29.485 43.1576 29.5635C43.3473 29.6421 43.5506 29.6825 43.7559 29.6825C43.9612 29.6825 44.1645 29.6421 44.3541 29.5635C44.5438 29.485 44.7162 29.3698 44.8613 29.2246C45.0065 29.0795 45.1217 28.9071 45.2002 28.7174C45.2788 28.5278 45.3192 28.3245 45.3192 28.1192C45.3192 27.9139 45.2788 27.7106 45.2002 27.5209C45.1217 27.3312 45.0065 27.1589 44.8613 27.0137L39.709 21.875L46.418 15.168C46.5633 15.0229 46.6785 14.8505 46.7571 14.6609C46.8358 14.4712 46.8762 14.2679 46.8762 14.0625C46.8762 13.8572 46.8358 13.6539 46.7571 13.4642C46.6785 13.2745 46.5633 13.1022 46.418 12.957ZM28.8516 36.1328C28.4163 36.5684 27.8994 36.9139 27.3305 37.1496C26.7617 37.3853 26.1519 37.5066 25.5361 37.5066C24.9204 37.5066 24.3106 37.3853 23.7418 37.1496C23.1729 36.9139 22.656 36.5684 22.2207 36.1328L13.8672 27.7793C13.4317 27.344 13.0862 26.8272 12.8504 26.2583C12.6147 25.6894 12.4934 25.0797 12.4934 24.4639C12.4934 23.8481 12.6147 23.2384 12.8504 22.6695C13.0862 22.1006 13.4317 21.5838 13.8672 21.1485L24.2188 10.7969L39.1973 25.7813L28.8516 36.1328Z" fill="white"/>
</svg>
